HIERARCHY
ROOT hip
{
  OFFSET 0 0 0
  CHANNELS 6 Xposition Yposition Zposition Zrotation Yrotation Xrotation
  JOINT abdomen
  {
    OFFSET 0 20.6881 -0.73152
    CHANNELS 3 Zrotation Xrotation Yrotation
    JOINT chest
    {
      OFFSET 0 11.7043 -0.48768
      CHANNELS 3 Zrotation Xrotation Yrotation
      JOINT neck
      {
        OFFSET 0 22.1894 -2.19456
        CHANNELS 3 Zrotation Xrotation Yrotation
        JOINT head
        {
          OFFSET -0.24384 7.07133 1.2192
          CHANNELS 3 Zrotation Xrotation Yrotation
          JOINT leftEye
          {
            OFFSET 4.14528 8.04674 8.04672
            CHANNELS 3 Zrotation Xrotation Yrotation
            End Site
            {
              OFFSET 1 0 0
            }
          }
          JOINT rightEye
          {
            OFFSET -3.6576 8.04674 8.04672
            CHANNELS 3 Zrotation Xrotation Yrotation
            End Site
            {
              OFFSET 1 0 0
            }
          }
        }
      }
      JOINT rCollar
      {
        OFFSET -2.68224 19.2634 -4.8768
        CHANNELS 3 Zrotation Xrotation Yrotation
        JOINT rShldr
        {
          OFFSET -8.77824 -1.95073 1.46304
          CHANNELS 3 Zrotation Xrotation Yrotation
          JOINT rForeArm
          {
            OFFSET -28.1742 -1.7115 0.48768
            CHANNELS 3 Zrotation Xrotation Yrotation
            JOINT rHand
            {
              OFFSET -22.5879 0.773209 7.07136
              CHANNELS 3 Zrotation Xrotation Yrotation
              JOINT rThumb1
              {
                OFFSET -1.2192 -0.487915 3.41376
                CHANNELS 3 Zrotation Xrotation Yrotation
                JOINT rThumb2
                {
                  OFFSET -3.37035 -0.52449 3.41376
                  CHANNELS 3 Zrotation Xrotation Yrotation
                  End Site
                  {
                    OFFSET -1.78271 -1.18214 1.43049
                  }
                }
              }
              JOINT rIndex1
              {
                OFFSET -7.75947 0.938293 5.60832
                CHANNELS 3 Zrotation Xrotation Yrotation
                JOINT rIndex2
                {
                  OFFSET -2.54057 -0.884171 1.56538
                  CHANNELS 3 Zrotation Xrotation Yrotation
                  End Site
                  {
                    OFFSET -1.62519 -0.234802 1.16502
                  }
                }
              }
              JOINT rMid1
              {
                OFFSET -8.24714 1.18213 3.41376
                CHANNELS 3 Zrotation Xrotation Yrotation
                JOINT rMid2
                {
                  OFFSET -3.10165 -0.590103 1.0647
                  CHANNELS 3 Zrotation Xrotation Yrotation
                  End Site
                  {
                    OFFSET -2.48547 -0.328903 0.83742
                  }
                }
              }
              JOINT rRing1
              {
                OFFSET -8.82822 0.546677 1.51678
                CHANNELS 3 Zrotation Xrotation Yrotation
                JOINT rRing2
                {
                  OFFSET -2.60934 -0.819778 -0.0198488
                  CHANNELS 3 Zrotation Xrotation Yrotation
                  End Site
                  {
                    OFFSET -2.33842 -0.294052 0.168128
                  }
                }
              }
              JOINT rPinky1
              {
                OFFSET -8.27202 -0.0477905 -0.4584
                CHANNELS 3 Zrotation Xrotation Yrotation
                JOINT rPinky2
                {
                  OFFSET -1.82734 -0.647385 -0.700984
                  CHANNELS 3 Zrotation Xrotation Yrotation
                  End Site
                  {
                    OFFSET -1.69225 -0.51767 -0.607171
                  }
                }
              }
            }
          }
        }
      }
      JOINT lCollar
      {
        OFFSET 2.68224 19.2634 -4.8768
        CHANNELS 3 Zrotation Xrotation Yrotation
        JOINT lShldr
        {
          OFFSET 8.77824 -1.95073 1.46304
          CHANNELS 3 Zrotation Xrotation Yrotation
          JOINT lForeArm
          {
            OFFSET 28.1742 -1.7115 0.48768
            CHANNELS 3 Zrotation Xrotation Yrotation
            JOINT lHand
            {
              OFFSET 22.5879 0.773209 7.07136
              CHANNELS 3 Zrotation Xrotation Yrotation
              JOINT lThumb1
              {
                OFFSET 1.2192 -0.487915 3.41376
                CHANNELS 3 Zrotation Xrotation Yrotation
                JOINT lThumb2
                {
                  OFFSET 3.37035 -0.52449 3.41376
                  CHANNELS 3 Zrotation Xrotation Yrotation
                  End Site
                  {
                    OFFSET 1.78271 -1.18214 1.43049
                  }
                }
              }
              JOINT lIndex1
              {
                OFFSET 7.75947 0.938293 5.60832
                CHANNELS 3 Zrotation Xrotation Yrotation
                JOINT lIndex2
                {
                  OFFSET 2.54057 -0.884171 1.56538
                  CHANNELS 3 Zrotation Xrotation Yrotation
                  End Site
                  {
                    OFFSET 1.62519 -0.234802 1.16502
                  }
                }
              }
              JOINT lMid1
              {
                OFFSET 8.24714 1.18213 3.41376
                CHANNELS 3 Zrotation Xrotation Yrotation
                JOINT lMid2
                {
                  OFFSET 3.10165 -0.590103 1.0647
                  CHANNELS 3 Zrotation Xrotation Yrotation
                  End Site
                  {
                    OFFSET 2.48547 -0.328903 0.83742
                  }
                }
              }
              JOINT lRing1
              {
                OFFSET 8.82822 0.546677 1.51678
                CHANNELS 3 Zrotation Xrotation Yrotation
                JOINT lRing2
                {
                  OFFSET 2.60934 -0.819778 -0.0198488
                  CHANNELS 3 Zrotation Xrotation Yrotation
                  End Site
                  {
                    OFFSET 2.33842 -0.294052 0.168128
                  }
                }
              }
              JOINT lPinky1
              {
                OFFSET 8.27202 -0.0477905 -0.4584
                CHANNELS 3 Zrotation Xrotation Yrotation
                JOINT lPinky2
                {
                  OFFSET 1.82734 -0.647385 -0.700984
                  CHANNELS 3 Zrotation Xrotation Yrotation
                  End Site
                  {
                    OFFSET 1.69225 -0.51767 -0.607171
                  }
                }
              }
            }
          }
        }
      }
    }
  }
  JOINT rButtock
  {
    OFFSET -8.77824 4.35084 1.2192
    CHANNELS 3 Zrotation Xrotation Yrotation
    JOINT rThigh
    {
      OFFSET 0 -1.70687 -2.19456
      CHANNELS 3 Zrotation Xrotation Yrotation
      JOINT rShin
      {
        OFFSET 0 -36.8199 0.73152
        CHANNELS 3 Zrotation Xrotation Yrotation
        JOINT rFoot
        {
          OFFSET 0.73152 -45.1104 -5.12064
          CHANNELS 3 Zrotation Xrotation Yrotation
          End Site
          {
            OFFSET -1.1221 -3.69964 12.103
          }
        }
      }
    }
  }
  JOINT lButtock
  {
    OFFSET 8.77824 4.35084 1.2192
    CHANNELS 3 Zrotation Xrotation Yrotation
    JOINT lThigh
    {
      OFFSET 0 -1.70687 -2.19456
      CHANNELS 3 Zrotation Xrotation Yrotation
      JOINT lShin
      {
        OFFSET 0 -36.8199 0.73152
        CHANNELS 3 Zrotation Xrotation Yrotation
        JOINT lFoot
        {
          OFFSET -0.73152 -45.1104 -5.12064
          CHANNELS 3 Zrotation Xrotation Yrotation
          End Site
          {
            OFFSET 1.1221 -3.69964 12.103
          }
        }
      }
    }
  }
}
MOTION
Frames:	4
Frame Time:	0.03333333333333333
-123.39900000000002 83.2872 -25.852760000000004 219.53 111.469 -141.62400000000002 -17.3587 4.63176 4.06488 1.1794 -4.86702 1.0921500000000002 -4.35946 26.4415 -20.6592 12.3618 -33.3928 -37.3505 -0.0 0.0 0.0 -0.0 0.0 0.0 2.56744e-14 -8.97998e-14 1.25731e-13 57.1732 -12.668 44.7067 -17.9133 -10.5938 33.8259 -0.174707 11.8276 1.68652 -1.07138e-09 -1.21747e-09 -2.35724e-10 -1.8549800000000001e-09 -2.11928e-09 -3.95501e-10 -1.07136e-09 -1.21745e-09 -2.3575900000000006e-10 7.730910000000001 5.47488 0.417314 -1.07138e-09 -1.21746e-09 -2.3572e-10 2.9055400000000002 0.965183 0.102902 -1.07135e-09 -1.21745e-09 -2.35732e-10 10.2786 0.731801 0.0259123 -1.07137e-09 -1.21746e-09 -2.3572e-10 2.22167 -0.733487 -0.20892 2.5613700000000004e-14 -8.98017e-14 1.25483e-13 -91.7663 59.26019999999999 -1.27198 28.2881 -38.4568 -81.1985 0.233813 13.6414 -1.95462 1.12553e-10 4.99528e-10 -3.24636e-10 1.8878600000000002e-10 8.6382e-10 -5.63784e-10 1.12546e-10 4.99528e-10 -3.24623e-10 -7.730910000000001 5.47488 -0.417314 1.12558e-10 4.9952e-10 -3.2463e-10 -2.9055400000000002 0.965183 -0.102902 1.1253999999999999e-10 4.99525e-10 -3.24633e-10 -10.2786 0.731801 -0.0259123 1.1255100000000001e-10 4.99527e-10 -3.24636e-10 -2.22167 -0.733487 0.20892 -2.03217e-16 0.0 -3.88251e-19 -33.7491 -41.6384 -31.400900000000004 -0.48103300000000004 51.091 1.81932 -19.0562 -22.7821 -34.8992 2.03217e-16 0.0 3.88251e-19 -15.6737 1.7242800000000003 -4.86994 -0.0277405 18.7448 -0.6351360000000001 -4.52195 -19.8071 -13.1593
-120.7363 83.0128 -23.58476 225.899 110.868 -135.92 -18.8275 4.67928 2.33943 2.90932 -4.75749 0.6631160000000001 -4.55922 26.6744 -20.4444 12.1879 -34.6119 -37.0157 -0.0 0.0 0.0 -0.0 0.0 0.0 -1.0774e-13 7.0408e-13 -2.86871e-14 55.5976 -16.2835 43.8373 -17.2231 -9.87864 32.2873 -0.156562 10.9007 1.55317 -1.52747e-10 5.97053e-10 -4.75983e-10 -2.70851e-10 1.01622e-09 -8.21092e-10 -1.5274000000000003e-10 5.97055e-10 -4.76004e-10 7.730910000000001 5.47488 0.417314 -1.52751e-10 5.97066e-10 -4.75981e-10 2.9055400000000002 0.965183 0.102902 -1.52728e-10 5.97073e-10 -4.759870000000001e-10 10.2786 0.731801 0.0259123 -1.5274000000000003e-10 5.97066e-10 -4.75978e-10 2.22167 -0.733487 -0.20892 -1.0784599999999999e-13 7.04079e-13 -2.89356e-14 -93.7352 56.6876 0.611468 28.2278 -38.9831 -82.1131 0.24364 13.910100000000002 -1.9947500000000002 -1.15763e-09 -6.85382e-10 5.99045e-10 -1.99431e-09 -1.19383e-09 1.04837e-09 -1.15763e-09 -6.85382e-10 5.99054e-10 -7.730910000000001 5.47488 -0.417314 -1.15762e-09 -6.85384e-10 5.99048e-10 -2.9055400000000002 0.965183 -0.102902 -1.15764e-09 -6.85385e-10 5.99046e-10 -10.2786 0.731801 -0.0259123 -1.15762e-09 -6.85384e-10 5.99042e-10 -2.22167 -0.733487 0.20892 -2.03217e-16 0.0 -3.88251e-19 -34.3579 -41.845 -34.9192 -0.368473 48.4954 1.8630000000000002 -22.7264 -22.9034 -40.127300000000005 2.03217e-16 0.0 3.88251e-19 -14.910700000000002 5.00868 -3.9861700000000004 -0.0353277 16.9513 -0.676469 -4.03973 -19.778100000000002 -11.962
-118.35610000000001 82.7455 -20.84286 224.772 110.353 -136.904 -20.1262 4.48058 0.237672 4.56812 -4.552560000000001 0.125233 -4.88084 27.3113 -20.2956 12.596900000000002 -36.1862 -36.6438 -0.0 0.0 0.0 -0.0 0.0 0.0 -1.66734e-13 1.02304e-12 -3.41761e-13 56.0691 -18.9535 44.0982 -16.274 -8.94423 30.2531 -0.164602 11.4864 1.6365 2.06149e-09 4.40534e-09 -2.15444e-10 3.55688e-09 7.63641e-09 -4.00583e-10 2.06149e-09 4.40532e-09 -2.15448e-10 7.730910000000001 5.47488 0.417314 2.06149e-09 4.40535e-09 -2.15444e-10 2.9055400000000002 0.965183 0.102902 2.0615e-09 4.40535e-09 -2.1544300000000003e-10 10.2786 0.731801 0.0259123 2.0615e-09 4.40535e-09 -2.1543500000000002e-10 2.22167 -0.733487 -0.20892 -1.66887e-13 1.02304e-12 -3.42009e-13 -96.12460000000002 53.3189 3.01338 28.1483 -39.5439 -83.1084 0.24583 13.979 -2.00496 -2.01907e-09 -2.11739e-09 1.57587e-09 -3.46872e-09 -3.67229e-09 2.74811e-09 -2.01906e-09 -2.11739e-09 1.57588e-09 -7.730910000000001 5.47488 -0.417314 -2.01907e-09 -2.11739e-09 1.57587e-09 -2.9055400000000002 0.965183 -0.102902 -2.01908e-09 -2.11739e-09 1.57587e-09 -10.2786 0.731801 -0.0259123 -2.01906e-09 -2.11739e-09 1.57587e-09 -2.22167 -0.733487 0.20892 -2.03217e-16 0.0 -3.88251e-19 -33.3608 -41.7777 -36.8001 -0.324401 47.236 1.92463 -24.890400000000003 -22.3599 -43.5457 2.03217e-16 0.0 3.88251e-19 -14.2899 7.939110000000001 -2.54963 -0.04097030000000001 15.917300000000001 -0.710551 -3.27486 -19.575300000000002 -10.107
-115.8193 82.7551 -17.84276 221.71800000000002 111.181 -139.842 -20.9822 3.48752 -2.22937 5.6297 -4.06876 -0.517193 -5.3272 28.7874 -20.74 14.4861 -37.9283 -36.9357 -0.0 0.0 0.0 -0.0 0.0 0.0 5.02043e-14 -1.38139e-14 -6.74638e-13 62.366400000000006 -21.992 46.6279 -15.0551 -7.858840000000001 27.659100000000002 -0.3180740000000001 16.634 2.39648 4.31108e-09 1.1323600000000001e-08 2.27704e-11 7.442120000000001e-09 1.97437e-08 -3.30013e-11 4.31108e-09 1.1323600000000001e-08 2.27692e-11 7.730910000000001 5.47488 0.417314 4.31107e-09 1.1323600000000001e-08 2.27773e-11 2.9055400000000002 0.965183 0.102902 4.31108e-09 1.1323600000000001e-08 2.27782e-11 10.2786 0.731801 0.0259123 4.31107e-09 1.1323600000000001e-08 2.27913e-11 2.22167 -0.733487 -0.20892 5.00765e-14 -1.38118e-14 -6.74799e-13 -98.8922 49.808400000000006 5.81031 28.0539 -40.1352 -84.1538 0.220683 13.2279 -1.89334 6.78613e-10 -1.43784e-09 9.6654e-10 1.18941e-09 -2.46539e-09 1.66592e-09 6.78614e-10 -1.43784e-09 9.66548e-10 -7.730910000000001 5.47488 -0.417314 6.78614e-10 -1.43784e-09 9.6654e-10 -2.9055400000000002 0.965183 -0.102902 6.78604e-10 -1.43785e-09 9.6654e-10 -10.2786 0.731801 -0.0259123 6.78619e-10 -1.43785e-09 9.66533e-10 -2.22167 -0.733487 0.20892 -2.03217e-16 0.0 -3.88251e-19 -29.327799999999996 -41.2544 -34.7219 -0.297575 47.334500000000006 2.05608 -28.2863 -25.8381 -44.8167 2.03217e-16 0.0 3.88251e-19 -13.65 10.1425 -3.08466 -0.0528381 15.8198 -0.71633 -1.9714800000000001 -19.4433 -6.76119
